<svg xmlns="http://www.w3.org/2000/svg" viewBox="0 0 861.88 820.4"><defs><style>.cls-1{fill:#fff;}</style></defs><title>cache</title><g id="Layer_2" data-name="Layer 2"><g id="Capa_1" data-name="Capa 1"><path class="cls-1" d="M662.31,233.42c-10.78-39.93-91-79.22-231.37-79.22s-220.6,39.29-231.37,79.22a9.15,9.15,0,0,0-1.36,4.56V582.42a8.75,8.75,0,0,0,1.09,4.2c11,45.57,109.36,79.58,231.64,79.58,122,0,220.21-33.87,231.56-79.27a9.18,9.18,0,0,0,1.17-4.51V238A9.15,9.15,0,0,0,662.31,233.42Zm-18,237.15a22.42,22.42,0,0,1-1.08,3.38,24.83,24.83,0,0,1-1.33,2.76,30.82,30.82,0,0,1-2.15,3.44c-.61.87-1.31,1.72-2,2.58-1,1.22-2.13,2.44-3.37,3.65-.76.73-1.59,1.46-2.43,2.19-1.52,1.34-3.11,2.66-4.89,4-.77.57-1.58,1.12-2.39,1.68-2.11,1.45-4.31,2.89-6.72,4.31-.63.38-1.31.74-2,1.11-2.77,1.57-5.67,3.12-8.8,4.63-.4.2-.82.38-1.23.57-3.49,1.65-7.14,3.27-11,4.83l-.33.13c-21.14,8.44-48.19,15.55-79.7,20.2l-.47.07q-9.19,1.35-18.86,2.41c-1.05.11-2.16.18-3.22.29-5.63.59-11.33,1.13-17.2,1.56-2.68.19-5.49.29-8.22.45-4.41.27-8.77.55-13.3.71-7.39.24-14.93.38-22.63.38s-15.24-.14-22.64-.41c-4.52-.15-8.89-.45-13.3-.7-2.73-.16-5.54-.26-8.22-.46-5.87-.43-11.56-1-17.2-1.55-1.06-.12-2.16-.19-3.22-.3q-9.67-1.07-18.86-2.41L347,530c-31.51-4.65-58.56-11.76-79.7-20.2l-.33-.13c-3.9-1.56-7.56-3.18-11-4.83-.4-.2-.83-.38-1.23-.57-3.13-1.51-6-3.05-8.8-4.62-.65-.38-1.34-.74-2-1.12-2.41-1.42-4.61-2.86-6.71-4.31-.8-.56-1.63-1.11-2.4-1.68-1.77-1.31-3.37-2.63-4.89-4-.83-.73-1.67-1.46-2.42-2.2a47.15,47.15,0,0,1-3.38-3.65c-.73-.86-1.43-1.71-2-2.58a34,34,0,0,1-2.15-3.43,29.11,29.11,0,0,1-1.33-2.77,21.72,21.72,0,0,1-1.08-3.38,19.85,19.85,0,0,1-.73-4.48,19.52,19.52,0,0,1,.29-3.15,9.32,9.32,0,0,0-.29-4.14V389.66c.26.24.59.47.86.71,2,1.79,4.09,3.57,6.42,5.28,35.07,26.52,105.19,47.13,206.83,47.13,101.21,0,171.16-20.44,206.37-46.8a93.33,93.33,0,0,0,7.73-6.31h0v69.11a9.32,9.32,0,0,0-.29,4.14,18.45,18.45,0,0,1,.29,3.15A19.84,19.84,0,0,1,644.31,470.57ZM645.05,278v69.11a9.32,9.32,0,0,0-.29,4.14,18.45,18.45,0,0,1,.29,3.15,19.75,19.75,0,0,1-.74,4.51,22.06,22.06,0,0,1-1.08,3.38A25.84,25.84,0,0,1,641.9,365a30.72,30.72,0,0,1-2.15,3.43c-.61.87-1.31,1.72-2,2.58-1,1.22-2.13,2.44-3.37,3.65-.76.73-1.59,1.46-2.43,2.2-1.52,1.33-3.11,2.65-4.89,4-.77.57-1.58,1.12-2.39,1.68-2.11,1.45-4.31,2.89-6.72,4.31-.63.38-1.31.74-2,1.11-2.77,1.57-5.67,3.12-8.8,4.63-.4.2-.82.38-1.23.57-3.49,1.65-7.14,3.27-11,4.83l-.33.13c-21.14,8.44-48.19,15.55-79.7,20.2l-.47.07q-9.19,1.35-18.86,2.41c-1.05.11-2.16.18-3.22.3-5.63.58-11.33,1.12-17.2,1.55-2.68.2-5.49.29-8.22.46-4.41.26-8.77.55-13.3.7-7.39.24-14.93.39-22.63.39s-15.24-.15-22.64-.41c-4.52-.16-8.89-.46-13.3-.71-2.73-.16-5.54-.26-8.22-.46-5.87-.43-11.56-1-17.2-1.55-1.06-.11-2.16-.19-3.22-.3q-9.67-1.07-18.86-2.41l-.47-.07c-31.51-4.65-58.56-11.75-79.7-20.2a2.26,2.26,0,0,1-.33-.13c-3.9-1.56-7.56-3.18-11-4.83l-1.23-.57c-3.13-1.51-6-3-8.8-4.62-.65-.38-1.34-.74-2-1.12-2.41-1.42-4.61-2.86-6.71-4.31-.8-.56-1.63-1.11-2.4-1.68-1.77-1.31-3.37-2.63-4.89-4-.83-.73-1.67-1.45-2.42-2.2a47.15,47.15,0,0,1-3.38-3.65c-.73-.85-1.43-1.71-2-2.58A34,34,0,0,1,220,365a29.11,29.11,0,0,1-1.33-2.77,21.72,21.72,0,0,1-1.08-3.38,19.76,19.76,0,0,1-.73-4.48,19.52,19.52,0,0,1,.29-3.15,9.32,9.32,0,0,0-.29-4.14V278c1.12,1,2.39,2,3.6,3,.67.56,1.3,1.12,2,1.68,2.79,2.2,5.8,4.36,9.07,6.48.68.44,1.45.86,2.15,1.3q4.11,2.55,8.68,5c1.13.6,2.25,1.2,3.42,1.8q5.09,2.59,10.71,5c.61.27,1.17.55,1.8.81,4.36,1.85,9,3.62,13.82,5.34,1.33.47,2.73.92,4.1,1.38,3.83,1.3,7.8,2.53,11.9,3.74,1.48.42,2.94.87,4.45,1.28,5.45,1.51,11.07,2.94,17,4.26.81.19,1.69.34,2.51.52,5.2,1.13,10.6,2.18,16.15,3.17,1.88.34,3.79.65,5.7,1q7.92,1.29,16.3,2.38c1.43.19,2.8.4,4.25.58,6.93.84,14.09,1.55,21.46,2.17,1.81.15,3.7.26,5.55.39q8.83.64,18.07,1.06l6.77.29c8,.27,16.2.46,24.67.46s16.65-.19,24.67-.46l6.77-.29q9.24-.42,18.08-1.06c1.84-.14,3.72-.24,5.54-.39,7.37-.61,14.54-1.33,21.46-2.17,1.45-.18,2.82-.39,4.26-.58q8.35-1.08,16.29-2.38c1.91-.32,3.82-.63,5.7-1,5.55-1,10.95-2,16.15-3.17.82-.18,1.7-.34,2.51-.52,5.9-1.32,11.52-2.76,17-4.26,1.52-.42,3-.86,4.45-1.28,4.1-1.21,8.07-2.44,11.91-3.74,1.36-.46,2.76-.91,4.09-1.38,4.82-1.72,9.47-3.49,13.83-5.34.62-.26,1.18-.54,1.79-.81,3.75-1.64,7.32-3.31,10.72-5,1.16-.6,2.3-1.2,3.41-1.8q4.58-2.44,8.68-5c.71-.44,1.47-.86,2.15-1.3,3.27-2.12,6.28-4.27,9.08-6.48.69-.56,1.32-1.12,2-1.68C642.66,280,643.93,279,645.05,278ZM430.94,172.82c126.19,0,214.11,36.79,214.11,69.82s-87.92,69.82-214.11,69.82-214.11-36.79-214.11-69.82S304.76,172.82,430.94,172.82ZM645.05,579.65a10.51,10.51,0,0,0-.3,1.26c-5.28,32.2-92.46,66.67-213.81,66.67s-208.53-34.47-213.81-66.67a9.45,9.45,0,0,0-.3-1.22V501.37c.26.24.59.47.86.71,2,1.79,4.09,3.57,6.42,5.28,35.07,26.52,105.19,47.13,206.83,47.13,101.21,0,171.16-20.44,206.37-46.8a91.41,91.41,0,0,0,7.73-6.32h0Z"/><path class="cls-1" d="M430.94,0C194.24,0,0,184.9,0,410.2S194.24,820.4,430.94,820.4,861.88,635.51,861.88,410.2,667.64,0,430.94,0ZM163.47,591.19c-39.78-53.11-60.78-115.71-60.78-181C102.69,237.92,250,97.74,430.94,97.74c68.58,0,134.34,20,190.14,57.86a25.5,25.5,0,0,1,3.18,2.6l-458.06,436A24.74,24.74,0,0,1,163.47,591.19ZM430.94,722.66c-68.57,0-134.34-20-190.14-57.86a26.25,26.25,0,0,1-3.18-2.6l458.05-436a23.86,23.86,0,0,1,2.74,3c39.78,53.12,60.79,115.72,60.79,181C759.2,582.49,611.94,722.66,430.94,722.66Z"/></g></g></svg>
