<svg xmlns="http://www.w3.org/2000/svg" xmlns:xlink="http://www.w3.org/1999/xlink" viewBox="0 0 1027.54 1282.48"><defs><style>.cls-1{fill:url(#linear-gradient);}.cls-2{fill:none;stroke:#fff;stroke-miterlimit:10;}</style><linearGradient id="linear-gradient" x1="514.54" y1="1281.75" x2="514.54" y2="1.75" gradientUnits="userSpaceOnUse"><stop offset="0" stop-color="#ff0745"/><stop offset="0.06" stop-color="#f60a48"/><stop offset="0.15" stop-color="#dc1350"/><stop offset="0.27" stop-color="#b3205e"/><stop offset="0.37" stop-color="#8a2e6b"/><stop offset="0.6" stop-color="#633a77"/><stop offset="0.72" stop-color="#4f417e"/><stop offset="0.99" stop-color="#005b97"/></linearGradient></defs><title>Layer 1 (2)</title><g id="Layer_2" data-name="Layer 2"><g id="Layer_1-2" data-name="Layer 1"><rect class="cls-1" x="2.54" y="1.75" width="1024" height="1280"/><g id="Layer_2-2" data-name="Layer 2"><polygon class="cls-2" points="427.04 135.25 133.05 135.25 264.04 1.25 427.04 135.25"/><polygon class="cls-2" points="2.04 268.25 427.04 135.25 133.04 135.25 2.04 268.25"/><polygon class="cls-2" points="264.04 1.25 670.04 1.25 427.04 135.25 264.04 1.25"/><polygon class="cls-2" points="399.04 345.25 427.04 135.25 2.04 268.25 399.04 345.25"/><polygon class="cls-2" points="280.04 488.25 264.54 319.16 399.04 345.25 280.04 488.25"/><polygon class="cls-2" points="2.04 268.25 280.04 488.25 264.04 319.25 2.04 268.25"/><polygon class="cls-2" points="399.04 345.25 481.04 427.25 280.04 488.25 399.04 345.25"/><polygon class="cls-2" points="547.04 268.25 427.04 135.25 399.04 345.25 547.04 268.25"/><polygon class="cls-2" points="481.04 427.25 399.04 345.25 547.04 268.25 481.04 427.25"/><polygon class="cls-2" points="670.04 1.25 547.04 268.25 427.04 135.25 670.04 1.25"/><polygon class="cls-2" points="481.04 427.25 442.04 690.25 280.04 488.25 481.04 427.25"/><polygon class="cls-2" points="609.04 658.25 484.86 434.15 481.04 427.25 547.04 268.25 609.04 658.25"/><polygon class="cls-2" points="547.04 268.25 670.04 1.25 718.04 106.25 649.4 171.27 547.04 268.25"/><polygon class="cls-2" points="670.04 297.25 547.04 268.25 638.92 181.2 670.04 297.25"/><polygon class="cls-2" points="609.04 658.25 442.04 690.25 481.04 427.25 609.04 658.25"/><polygon class="cls-2" points="670.04 297.25 547.04 268.25 568.57 403.7 670.04 297.25"/><polygon class="cls-2" points="609.04 658.25 569.04 403.25 670.04 427.25 609.04 658.25"/><polygon class="cls-2" points="670.04 297.25 569.04 403.25 670.04 427.25 670.04 297.25"/><polygon class="cls-2" points="718.04 106.25 670.04 297.25 803.04 230.25 718.04 106.25"/><polygon class="cls-2" points="851.04 1.25 718.04 106.25 670.04 1.25 851.04 1.25"/><polygon class="cls-2" points="803.04 230.25 718.04 106.25 851.04 1.25 803.04 230.25"/><polygon class="cls-2" points="670.04 427.25 803.04 230.25 851.04 416.25 670.04 427.25"/><polygon class="cls-2" points="609.04 658.25 851.04 416.25 670.04 427.25 609.04 658.25"/><polygon class="cls-2" points="859.04 571.25 760.54 506.75 851.04 416.25 859.04 571.25"/><polygon class="cls-2" points="609.04 658.25 760.04 507.25 859.04 571.25 609.04 658.25"/><polygon class="cls-2" points="619.04 843.25 609.04 658.25 442.04 690.25 619.04 843.25"/><polygon class="cls-2" points="859.04 571.25 784.04 784.25 609.04 658.25 859.04 571.25"/><polygon class="cls-2" points="619.04 843.25 784.04 784.25 609.04 658.25 619.04 843.25"/><polygon class="cls-2" points="332.04 736.25 280.04 488.25 442.04 690.25 332.04 736.25"/><polygon class="cls-2" points="133.05 452.82 192.04 621.25 280.04 488.25 133.05 452.82"/><polygon class="cls-2" points="332.04 736.25 192.04 621.25 280.04 488.25 332.04 736.25"/><polygon class="cls-2" points="70.04 621.25 2.04 416.25 133.04 453.25 70.04 621.25"/><polygon class="cls-2" points="192.04 621.25 67.04 621.25 92.04 690.25 192.04 621.25"/><polygon class="cls-2" points="92.04 690.25 2.04 736.25 67.04 621.25 92.04 690.25"/><polygon class="cls-2" points="129.04 843.25 192.04 621.25 92.04 690.25 129.04 843.25"/><polygon class="cls-2" points="2.04 736.25 129.04 843.25 92.04 690.25 2.04 736.25"/><polygon class="cls-2" points="214.04 873.25 332.04 736.25 192.04 621.25 214.04 873.25"/><polygon class="cls-2" points="129.04 843.25 192.04 621.25 214.04 873.25 129.04 843.25"/><polygon class="cls-2" points="380.04 947.25 442.04 690.25 332.04 736.25 380.04 947.25"/><polygon class="cls-2" points="619.04 843.25 442.04 690.25 380.04 947.25 619.04 843.25"/><polygon class="cls-2" points="681.04 1003.25 619.04 843.25 569.04 992.25 681.04 1003.25"/><polygon class="cls-2" points="784.04 784.25 681.04 1003.25 784.04 988.25 784.04 784.25"/><polygon class="cls-2" points="920.04 750.25 784.04 784.25 784.04 988.25 920.04 750.25"/><polygon class="cls-2" points="971.04 571.25 859.04 571.25 920.04 750.25 971.04 571.25"/><polygon class="cls-2" points="1010.04 345.25 971.04 571.25 851.04 416.25 1010.04 345.25"/><polygon class="cls-2" points="803.04 230.25 1026.04 181.25 851.04 1.25 803.04 230.25"/><polygon class="cls-2" points="1010.04 345.25 803.04 230.25 1026.04 181.25 1010.04 345.25"/><polygon class="cls-2" points="1026.04 348.25 1026.04 181.25 1010.04 345.25 1026.04 348.25"/><polygon class="cls-2" points="971.04 571.25 1026.04 571.25 920.04 750.25 971.04 571.25"/><polygon class="cls-2" points="1026.04 750.25 920.04 750.25 920.04 923.25 1026.04 750.25"/><polygon class="cls-2" points="784.04 988.25 920.04 923.25 914.04 1034.25 784.04 988.25"/><polygon class="cls-2" points="1026.04 893.25 920.04 923.25 1026.04 1003.25 1026.04 893.25"/><polygon class="cls-2" points="955.04 1190.25 914.04 1034.25 1026.04 1003.25 955.04 1190.25"/><path class="cls-2" d="M1026,1199.25l-71-9s70,90,71,91S1026,1199.25,1026,1199.25Z"/><polygon class="cls-2" points="751.04 1180.25 784.04 988.25 914.04 1034.25 751.04 1180.25"/><polygon class="cls-2" points="955.04 1190.25 751.04 1180.25 914.04 1034.25 955.04 1190.25"/><polygon class="cls-2" points="901.04 1281.25 955.04 1190.25 751.04 1180.25 901.04 1281.25"/><polygon class="cls-2" points="590.04 1212.25 569.04 988.25 681.04 1003.25 590.04 1212.25"/><polygon class="cls-2" points="736.04 1100.25 681.04 1003.25 784.04 988.25 736.04 1100.25"/><polygon class="cls-2" points="751.04 1180.25 736.04 1100.25 625.04 1131.86 751.04 1180.25"/><polygon class="cls-2" points="590.04 1212.25 751.04 1180.25 730.04 1281.25 590.04 1212.25"/><polygon class="cls-2" points="387.04 1190.25 545.04 1281.25 590.04 1212.25 387.04 1190.25"/><polygon class="cls-2" points="569.04 988.25 387.04 1190.25 380.04 947.25 569.04 988.25"/><polygon class="cls-2" points="297.04 968.25 214.04 873.25 332.04 736.25 297.04 968.25"/><polygon class="cls-2" points="380.04 947.25 297.04 968.25 297.04 1140.25 380.04 947.25"/><polygon class="cls-2" points="387.04 1190.25 297.04 1140.25 309.04 1281.25 387.04 1190.25"/><polygon class="cls-2" points="112.04 1127.25 297.04 968.25 214.04 873.25 112.04 1127.25"/><polygon class="cls-2" points="65.04 893.25 171.54 979.08 214.04 873.25 65.04 893.25"/><polygon class="cls-2" points="129.04 843.25 65.04 893.25 2.04 736.25 129.04 843.25"/><polygon class="cls-2" points="2.04 934.25 65.04 893.25 67.04 1043.25 2.04 934.25"/><polygon class="cls-2" points="171.04 979.25 67.04 1043.25 65.04 893.25 171.04 979.25"/><polygon class="cls-2" points="112.04 1127.25 67.04 1043.25 2.04 1068.25 112.04 1127.25"/><polygon class="cls-2" points="2.04 1281.25 112.04 1127.25 171.04 1281.25 2.04 1281.25"/><polygon class="cls-2" points="220.25 1034.25 151.69 1230.75 297.04 1140.25 220.25 1034.25"/><path class="cls-2" d="M309,1281.25c-12,1-157-51-157-51l19,51Z"/><polygon class="cls-2" points="180.85 86.35 139.54 1.75 2.54 145.52 180.85 86.35"/><polygon class="cls-2" points="514.54 87 342.04 1.75 361.04 73.64 514.54 87"/><polygon class="cls-2" points="428.29 44.37 442.04 1.25 670.04 1.25 428.29 44.37"/><polygon class="cls-2" points="1027.04 1.25 934.4 87 1026.04 181.25 1027.04 1.25"/><path class="cls-2" d="M2,416.25,86.54,336S142,456.25,133,453.25,2,416.25,2,416.25Z"/><polygon class="cls-2" points="3.04 145.25 78.11 191.01 181.04 87.25 3.04 145.25"/></g></g></g></svg>