<svg xmlns="http://www.w3.org/2000/svg" width="29.948" height="24.333" viewBox="0 0 29.948 24.333">
  <path id="list-solid" d="M7.487,51.978v-2.34a.936.936,0,0,1,.936-.936h20.59a.936.936,0,0,1,.936.936v2.34a.936.936,0,0,1-.936.936H8.423A.936.936,0,0,1,7.487,51.978Zm.936,10.295h20.59a.936.936,0,0,0,.936-.936V59a.936.936,0,0,0-.936-.936H8.423A.936.936,0,0,0,7.487,59v2.34A.936.936,0,0,0,8.423,62.272Zm0,9.359h20.59a.936.936,0,0,0,.936-.936v-2.34a.936.936,0,0,0-.936-.936H8.423a.936.936,0,0,0-.936.936V70.7A.936.936,0,0,0,8.423,71.631ZM.936,53.615H4.679a.936.936,0,0,0,.936-.936V48.936A.936.936,0,0,0,4.679,48H.936A.936.936,0,0,0,0,48.936v3.744A.936.936,0,0,0,.936,53.615Zm0,9.359H4.679a.936.936,0,0,0,.936-.936V58.295a.936.936,0,0,0-.936-.936H.936A.936.936,0,0,0,0,58.295v3.744A.936.936,0,0,0,.936,62.974Zm0,9.359H4.679a.936.936,0,0,0,.936-.936V67.654a.936.936,0,0,0-.936-.936H.936A.936.936,0,0,0,0,67.654V71.4A.936.936,0,0,0,.936,72.333Z" transform="translate(0 -48)" fill="#0d1a33"/>
</svg>
